<?xml version="1.0" encoding="UTF-8" standalone="no"?>
<svg
   width="128"
   height="128"
   version="1.1"
   id="svg6"
   xmlns="http://www.w3.org/2000/svg"
   xmlns:svg="http://www.w3.org/2000/svg">
  <defs
     id="defs6" />
  <rect
     width="124"
     height="124"
     x="2"
     y="2"
     fill="#363d52"
     stroke="#212532"
     stroke-width="4"
     rx="14"
     id="rect1" />
  <g
     fill="#fff"
     transform="translate(12.322 12.322)scale(.101)"
     id="g4">
    <path
       d="M105 673v33q407 354 814 0v-33z"
       id="path1" />
    <path
       fill="#478cbf"
       d="m105 673 152 14q12 1 15 14l4 67 132 10 8-61q2-11 15-15h162q13 4 15 15l8 61 132-10 4-67q3-13 15-14l152-14V427q30-39 56-81-35-59-83-108-43 20-82 47-40-37-88-64 7-51 8-102-59-28-123-42-26 43-46 89-49-7-98 0-20-46-46-89-64 14-123 42 1 51 8 102-48 27-88 64-39-27-82-47-48 49-83 108 26 42 56 81zm0 33v39c0 276 813 276 814 0v-39l-134 12-5 69q-2 10-14 13l-162 11q-12 0-16-11l-10-65H446l-10 65q-4 11-16 11l-162-11q-12-3-14-13l-5-69z"
       id="path2" />
    <path
       d="M483 600c0 34 58 34 58 0v-86c0-34-58-34-58 0z"
       id="path3" />
    <circle
       cx="725"
       cy="526"
       r="90"
       id="circle3" />
    <circle
       cx="299"
       cy="526"
       r="90"
       id="circle4" />
  </g>
  <g
     fill="#414042"
     transform="translate(12.322 12.322)scale(.101)"
     id="g6">
    <circle
       cx="307"
       cy="532"
       r="60"
       id="circle5" />
    <circle
       cx="717"
       cy="532"
       r="60"
       id="circle6" />
  </g>
  <path
     style="fill:#000000;stroke-width:0.151479"
     d="m 46.428402,90.311881 c -3.332544,-0.253467 -6.080501,-0.476175 -6.106569,-0.494907 -0.02607,-0.01873 -0.143296,-1.582071 -0.260504,-3.474085 -0.243922,-3.937498 -0.342038,-4.266038 -1.365202,-4.571375 -0.329496,-0.09833 -3.76879,-0.459182 -7.642873,-0.801895 -3.874082,-0.342711 -7.265325,-0.657302 -7.536094,-0.699088 l -0.492308,-0.07598 V 67.81079 55.427024 L 21.950466,53.995169 C 20.890429,52.582436 18.186232,48.62058 17.649361,47.693718 l -0.276119,-0.476696 0.649122,-1.038097 c 1.62559,-2.599697 3.991304,-5.716215 6.278236,-8.270756 l 1.321777,-1.476445 2.082264,1.056557 c 1.145246,0.581106 3.01847,1.644674 4.162721,2.363483 1.875786,1.178351 2.105725,1.284958 2.337316,1.083639 2.534533,-2.203242 5.977608,-4.720331 8.034892,-5.873973 0.658168,-0.369076 0.658458,-0.36962 0.565851,-1.067717 -0.237561,-1.790826 -0.537258,-5.273153 -0.632089,-7.344551 l -0.104534,-2.283383 1.801104,-0.767997 c 0.990606,-0.422399 2.550926,-1.040581 3.467376,-1.373738 2.28385,-0.830249 6.976426,-2.138484 7.104886,-1.980759 0.531667,0.65278 4.48328,8.364392 4.48328,8.749164 0,0.119884 0.321146,0.135898 1.098225,0.05476 1.419545,-0.148216 6.715286,-0.148277 7.99665,-9.2e-5 l 0.990733,0.114575 1.09577,-2.311024 c 1.360674,-2.869715 3.463523,-6.628347 3.708014,-6.627704 0.100538,2.64e-4 1.070381,0.23485 2.155204,0.521302 2.468783,0.651891 6.13917,1.92474 8.359564,2.899003 l 1.697652,0.744895 -0.06381,0.530177 c -0.03509,0.291598 -0.104248,1.51858 -0.153678,2.726627 -0.04943,1.208048 -0.214021,3.287101 -0.365756,4.620119 -0.202143,1.775865 -0.230187,2.450448 -0.104919,2.523862 2.82286,1.654359 5.748407,3.725901 7.678424,5.436991 0.55876,0.495377 1.056268,0.900685 1.105575,0.900685 0.04931,0 0.755922,-0.429072 1.570258,-0.953497 1.84778,-1.189948 3.501326,-2.138663 5.29204,-3.036284 l 1.38776,-0.695634 0.98943,1.048838 c 2.4544,2.601801 5.58599,6.757202 7.26364,9.638353 0.10484,0.180047 -2.57953,4.289988 -4.4089,6.750307 l -1.09069,1.466874 v 12.431351 c 0,6.837242 -0.017,12.433674 -0.0379,12.436517 -0.0208,0.0028 -3.60927,0.337677 -7.974307,0.744077 l -7.93643,0.738909 -0.458558,0.458558 c -0.503093,0.503093 -0.450999,0.128607 -0.824939,5.930211 l -0.112281,1.742012 -5.301776,0.400528 c -2.915976,0.220289 -5.881966,0.445673 -6.591089,0.500852 l -1.289315,0.100327 -0.41906,-3.227482 c -0.454515,-3.500535 -0.5501,-3.774686 -1.481717,-4.24973 -0.475421,-0.242421 -1.209486,-0.264872 -8.667457,-0.265089 -7.927069,-2.28e-4 -8.164626,0.0082 -8.759387,0.311648 -0.390623,0.199281 -0.683137,0.486404 -0.810201,0.795266 -0.109374,0.265861 -0.346274,1.642201 -0.526448,3.058532 -0.48576,3.818554 -0.415574,3.563125 -0.972775,3.540212 -0.261498,-0.01076 -3.202077,-0.226934 -6.534622,-0.480402 z M 65.595083,75.171598 c 0.846078,-0.427426 1.310781,-1.115623 1.437164,-2.128354 0.05406,-0.433193 0.07558,-2.764427 0.04782,-5.180522 -0.04947,-4.304976 -0.0576,-4.404363 -0.40657,-4.965656 -0.879066,-1.413928 -3.389058,-1.734453 -4.732174,-0.604297 -0.870468,0.732453 -0.895408,0.910148 -0.892673,6.360354 0.0024,4.858148 0.0098,4.978703 0.340828,5.560365 0.70874,1.245455 2.726768,1.705196 4.205609,0.95811 z M 44.747587,74.304312 c 1.709236,-0.437149 2.871055,-1.109978 4.220393,-2.4441 1.778611,-1.758555 2.686458,-3.896008 2.686458,-6.325054 0,-1.552677 -0.260395,-2.690377 -0.940761,-4.110306 -1.180852,-2.464451 -3.594325,-4.363899 -6.254505,-4.92241 -1.269418,-0.266519 -2.282393,-0.285007 -3.494073,-0.06377 -5.783869,1.056038 -9.07899,6.962288 -6.922848,12.40867 1.684439,4.254869 6.268713,6.591672 10.705336,5.456975 z m 43.020118,0 c 4.112481,-1.051796 6.896528,-4.60813 6.904612,-8.819933 0.003,-1.588047 -0.218107,-2.541376 -0.94174,-4.059527 -1.44597,-3.033583 -4.746024,-5.136243 -8.079088,-5.147666 -2.560104,-0.0088 -5.414827,1.2676 -7.019814,3.138625 -0.759686,0.88561 -1.562877,2.388309 -1.923968,3.599574 -0.366842,1.230555 -0.366842,3.616781 0,4.847337 1.450771,4.866548 6.261994,7.668712 11.059998,6.44159 z"
     id="path6" />
  <path
     style="fill:#ff2222;stroke-width:0.151479;fill-opacity:1"
     d="m 74.676501,90.664081 c -0.0302,-0.860456 -0.943711,-6.302179 -1.112868,-6.629292 -0.501537,-0.969866 -0.399895,-0.960282 -9.697001,-0.914258 -8.253389,0.04086 -8.410849,0.04725 -8.830786,0.35818 -0.235159,0.174121 -0.509005,0.482295 -0.608548,0.684832 -0.09954,0.202537 -0.362441,1.696052 -0.584221,3.31892 -0.221781,1.622871 -0.462355,3.013661 -0.534611,3.090648 -0.23687,0.252378 -12.69911,-0.707129 -12.874714,-0.991264 -0.0585,-0.09465 -0.153111,-0.964316 -0.210253,-1.93259 -0.148752,-2.520614 -0.364626,-4.567 -0.537397,-5.094257 -0.08212,-0.250608 -0.283188,-0.539262 -0.44682,-0.641452 -0.387131,-0.241767 -2.697569,-0.515458 -9.928039,-1.17606 -3.249231,-0.296862 -5.9929,-0.569319 -6.097042,-0.605462 C 23.0648,80.080176 23.024852,77.451419 23.024852,67.672009 V 55.277706 l -1.120524,-1.517583 c -1.663055,-2.252361 -4.33273,-6.259087 -4.33273,-6.502688 0,-0.577295 3.605831,-5.591861 6.096817,-8.478737 2.194125,-2.542834 1.745959,-2.4011 3.931405,-1.243331 1.024596,0.542793 2.84528,1.572879 4.045964,2.289079 1.200684,0.716199 2.239329,1.302181 2.308099,1.302181 0.06877,0 1.063197,-0.755756 2.209837,-1.679458 1.146641,-0.923701 3.005037,-2.285247 4.129771,-3.025658 1.124734,-0.74041 2.176191,-1.438375 2.336573,-1.551033 0.286012,-0.200909 0.286594,-0.256869 0.0304,-2.919905 -0.343081,-3.566118 -0.560675,-7.385705 -0.427804,-7.509525 0.147141,-0.137117 2.665039,-1.192594 4.587735,-1.923132 1.795239,-0.682109 6.099991,-1.962321 7.031368,-2.091094 l 0.606789,-0.08389 1.238306,2.325577 c 0.681067,1.279068 1.68753,3.240289 2.236585,4.358269 l 0.998279,2.032692 5.089091,0.01228 5.08909,0.01228 1.280556,-2.575148 c 1.53225,-3.081293 2.674523,-5.172213 3.152864,-5.771284 l 0.350822,-0.439367 1.415059,0.355473 c 2.064323,0.518574 6.108926,1.884106 8.458847,2.855863 1.124734,0.465108 2.06702,0.863754 2.093968,0.885879 0.08044,0.06604 -0.276943,5.738046 -0.504517,8.00709 -0.201606,2.010147 -0.150822,2.664926 0.206694,2.664926 0.178864,0 3.708693,2.331699 5.010614,3.30986 0.626497,0.470701 1.641161,1.281856 2.254808,1.802566 0.613649,0.52071 1.199848,0.946745 1.302666,0.946745 0.102817,0 0.96559,-0.485382 1.917272,-1.078625 0.951681,-0.593244 2.739563,-1.625863 3.973064,-2.294708 l 2.24275,-1.216082 0.61247,0.590566 c 1.55142,1.495907 4.4977,5.217156 6.51662,8.2307 l 1.1625,1.735214 -0.23689,0.462621 c -0.39652,0.774363 -2.64237,4.157856 -3.93147,5.922958 l -1.21606,1.6651 -0.11147,12.494087 c -0.0613,6.871748 -0.12277,12.501307 -0.13657,12.510134 -0.0138,0.0088 -3.56971,0.342298 -7.902011,0.741046 -7.720272,0.710579 -7.88506,0.732523 -8.286131,1.103466 -0.522667,0.483404 -0.534681,0.549344 -0.804129,4.413469 -0.124431,1.784442 -0.252166,3.270369 -0.283855,3.30206 -0.0939,0.0939 -12.968824,1.042207 -12.971869,0.955448 z M 64.837623,75.497313 c 0.89253,-0.191414 1.75131,-0.859963 2.063048,-1.606058 0.253026,-0.605578 0.29478,-9.636424 0.04865,-10.52258 -0.181519,-0.653537 -0.95363,-1.382168 -1.739479,-1.641522 -0.307021,-0.101326 -0.993021,-0.156517 -1.524667,-0.122663 -1.186727,0.07556 -2.156735,0.668781 -2.441123,1.492886 -0.125364,0.363287 -0.18342,2.084564 -0.189349,5.613951 -0.0085,5.03687 -0.005,5.095313 0.332794,5.596543 0.377308,0.559889 1.097495,1.036226 1.830906,1.210977 0.687136,0.163727 0.759892,0.162759 1.61922,-0.02153 z m -19.28435,-1.342378 c 1.890025,-0.669312 3.80582,-2.273801 4.931693,-4.130322 0.825112,-1.360578 1.051815,-2.211984 1.131719,-4.250292 0.06331,-1.615115 0.03216,-1.906784 -0.326582,-3.05739 -0.948865,-3.04334 -3.452928,-5.428362 -6.521929,-6.211881 -1.159274,-0.295965 -3.250173,-0.295247 -4.404987,0.0015 -2.576462,0.662085 -4.907628,2.488743 -6.03435,4.728402 -2.625477,5.218837 0.0836,11.424512 5.713985,13.089003 1.321832,0.39077 4.176988,0.303189 5.510451,-0.16903 z m 42.23502,0.220086 c 3.208316,-0.812102 5.840427,-3.415558 6.660553,-6.588039 0.358583,-1.387103 0.257082,-4.119771 -0.19936,-5.367238 -0.957652,-2.617287 -2.952026,-4.626443 -5.604336,-5.645873 -1.358018,-0.521961 -3.741581,-0.652438 -5.181955,-0.28366 -2.990907,0.765757 -5.105511,2.521823 -6.35498,5.277471 -1.193724,2.632699 -0.955648,5.913674 0.619265,8.534243 1.071769,1.783364 3.386079,3.506374 5.458679,4.064 1.078981,0.290296 3.472528,0.295027 4.602134,0.0091 z"
     id="path7" />
  <path
     style="fill:#ff2222;fill-opacity:1;stroke-width:0.151479"
     d="M 58.168047,108.22851 C 46.521218,107.34334 37.334094,104.72176 30.901775,100.44796 28.73342,99.007252 25.964769,96.229599 24.927502,94.454265 24.085893,93.01381 23.420157,91.216993 23.185079,89.751479 23.098213,89.209941 23.026626,87.624493 23.025996,86.228262 l -0.0011,-2.538601 0.795266,0.08398 c 0.437397,0.04619 3.414638,0.320121 6.616091,0.608736 3.201454,0.288614 5.852354,0.556283 5.89089,0.594818 0.03854,0.03854 0.189772,1.688275 0.336082,3.666086 l 0.266017,3.596022 0.469144,0.41918 c 0.258029,0.230549 0.623042,0.452009 0.811141,0.492132 0.357421,0.07624 16.090866,1.149351 16.812979,1.146739 0.237962,-8.61e-4 0.616095,-0.18191 0.888758,-0.425534 0.4646,-0.415121 0.48525,-0.492344 0.982262,-3.673373 0.279227,-1.787135 0.509818,-3.334544 0.512426,-3.438686 0.0037,-0.148503 1.42555,-0.189349 6.591206,-0.189349 h 6.586464 l 0.07849,0.340829 c 0.04317,0.187455 0.286104,1.703729 0.539854,3.369498 0.253752,1.665768 0.555279,3.171997 0.670061,3.347176 0.483952,0.738605 0.52763,0.739226 9.50326,0.135197 5.273413,-0.354883 8.554879,-0.636759 8.858486,-0.760938 0.792155,-0.324001 0.900817,-0.740425 1.184219,-4.538271 0.142991,-1.916213 0.275246,-3.501021 0.293899,-3.521795 0.01865,-0.02077 2.720824,-0.27596 6.004824,-0.567079 3.284005,-0.29112 6.294695,-0.570223 6.690435,-0.62023 l 0.71953,-0.09092 v 2.025289 c 0,3.429165 -0.32092,5.250428 -1.29909,7.372627 -1.77902,3.859695 -5.132186,6.890144 -10.59204,9.572645 -5.653412,2.77761 -12.384714,4.51477 -20.828931,5.37536 -2.756476,0.28093 -11.627055,0.41719 -14.238525,0.21871 z"
     id="path8" />
</svg>
